<?xml version="1.0" standalone="no"?><!DOCTYPE svg PUBLIC "-//W3C//DTD SVG 1.1//EN" "http://www.w3.org/Graphics/SVG/1.1/DTD/svg11.dtd"><svg t="1782024855701" class="icon" viewBox="0 0 1193 1024" version="1.1" xmlns="http://www.w3.org/2000/svg" p-id="3873" xmlns:xlink="http://www.w3.org/1999/xlink" width="233.0078125" height="200"><path d="M1158.842 85.445H94.79c-8.905 0-9.8 0-10.68 0.093V42.722A42.842 42.842 0 0 0 42.055 0 42.842 42.842 0 0 0 0 42.722v938.556A42.842 42.842 0 0 0 42.055 1024a42.842 42.842 0 0 0 42.055-42.722V767.559c0.88 0 1.775 0.094 2.67 0.094h169.554v129.502a45.219 45.219 0 0 0 43.977 44.057h681.047A42.802 42.802 0 0 0 1024 899.157V767.666h126.832a42.842 42.842 0 0 0 42.722-42.722V128.167c0-23.51-19.225-42.722-34.712-42.722z m-731.62 771.671h-86.779v-173.56h86.78z m170.89 0h-86.78v-173.56h86.78z m-54.164-399.52q38.21-38.01 91.987-38.01t91.786 38.01l-30.52 30.706q-25.473-25.473-61.266-25.473t-61.253 25.473z m91.987 91.986q-21.628 0-21.628-21.628t21.628-21.628q21.628 0 21.641 21.628t-21.641 21.628zM769 857.116h-86.78v-173.56h86.78z m-10.547-430.027q-50.732-50.946-122.52-50.946-71.973 0-122.706 50.946l-30.706-30.706q63.683-63.483 153.44-63.483t153.252 63.483z m61.414-61.413q-76.233-76.286-183.933-76.286t-183.973 76.22l-30.707-30.52a303.061 303.061 0 0 1 429.186 0.013z m120.022 491.44h-86.78v-173.56h86.78z" fill="#1296db" p-id="3874"></path></svg>